<svg xmlns="http://www.w3.org/2000/svg" version="1.1" xmlns:xlink="http://www.w3.org/1999/xlink" xmlns:svgjs="http://svgjs.dev/svgjs" width="1000" height="750" viewBox="0 0 1000 750"><rect width="1000" height="750" fill="#dedede"></rect><g transform="matrix(0.834,0,0,0.834,82.49454545454546,115.4193570850203)"><svg viewBox="0 0 396 247" data-background-color="#dedede" preserveAspectRatio="xMidYMid meet" height="623" width="1000" xmlns="http://www.w3.org/2000/svg" xmlns:xlink="http://www.w3.org/1999/xlink"><g id="tight-bounds" transform="matrix(1,0,0,1,0.2400000000000091,-0.09999999999999432)"><svg viewBox="0 0 395.52 247.2" height="247.2" width="395.52"><g><svg></svg></g><g><svg viewBox="0 0 395.52 247.2" height="247.2" width="395.52"><g transform="matrix(1,0,0,1,133.29430469798658,47.215199999999996)"><svg viewBox="0 0 128.93139060402683 152.7696" height="152.7696" width="128.93139060402683"><g><svg viewBox="0 0 128.93139060402683 152.7696" height="152.7696" width="128.93139060402683"><g><svg viewBox="0 0 128.93139060402683 152.7696" height="152.7696" width="128.93139060402683"><g><svg viewBox="0 0 128.93139060402683 152.7696" height="152.7696" width="128.93139060402683"><g id="textblocktransform"><svg viewBox="0 0 128.93139060402683 152.7696" height="152.7696" width="128.93139060402683" id="textblock"><g><svg viewBox="0 0 128.93139060402683 152.7696" height="152.7696" width="128.93139060402683"><g transform="matrix(1,0,0,1,0,0)"><svg width="128.93139060402683" viewBox="2.5399999618530273 -28.65999984741211 24.560001373291016 29.100000381469727" height="152.7696" data-palette-color="#374151"><path d="M12.11 0L2.73 0 2.59-1.66 5.57-2.44Q5.57-2.73 5.59-3.44 5.62-4.15 5.62-5.08 5.62-6.01 5.64-7.13 5.66-8.25 5.66-9.42L5.66-9.42 5.66-19.19Q5.66-21.48 5.64-23 5.62-24.51 5.59-25.32 5.57-26.12 5.47-26.32L5.47-26.32 2.54-27 2.64-28.66 12.74-28.66Q17.09-28.66 19.43-26.88 21.78-25.1 21.78-21.73L21.78-21.73Q21.78-19.34 20.48-17.46 19.19-15.58 16.89-14.5 14.6-13.43 11.62-13.43L11.62-13.43 8.45-13.43 8.45-15.48 11.47-15.48Q14.65-15.48 16.38-16.99 18.12-18.51 18.12-21.24L18.12-21.24Q18.12-23.93 16.63-25.32 15.14-26.71 12.26-26.71L12.26-26.71 9.18-26.71Q9.13-26.56 9.11-26.39 9.08-26.22 9.08-25.66 9.08-25.1 9.08-23.75 9.08-22.41 9.08-20.02L9.08-20.02 9.08-9.42Q9.08-7.08 9.11-5.71 9.13-4.35 9.18-3.61 9.23-2.88 9.28-2.44L9.28-2.44 12.21-1.66 12.11 0ZM25.2 0.44L25.2 0.44Q23.24 0.44 21.7-0.34 20.17-1.12 18.65-3.03 17.14-4.93 15.19-8.2L15.19-8.2 11.67-14.26 14.84-14.99 19.97-7.32Q21.44-5.13 22.56-3.91 23.68-2.69 24.76-2.1 25.83-1.51 27.1-1.27L27.1-1.27 27.05 0.29Q26.66 0.39 26.15 0.42 25.63 0.44 25.2 0.44Z" opacity="1" transform="matrix(1,0,0,1,0,0)" fill="#374151" class="wordmark-text-0" data-fill-palette-color="primary" id="text-0"></path></svg></g></svg></g></svg></g></svg></g></svg></g></svg></g></svg></g><g><path d="M188.066 0c30.402 0 58.24 10.976 79.768 29.183l-11.147 0c-19.26-14.022-42.974-22.294-68.621-22.295-25.647 0-49.361 8.272-68.621 22.295l-11.148 0c21.528-18.206 49.366-29.183 79.769-29.183zM188.066 247.2c-30.402 0-58.24-10.976-79.769-29.183l11.148 0c19.26 14.022 42.974 22.294 68.621 22.295 25.647 0 49.361-8.272 68.621-22.295l11.147 0c-21.528 18.206-49.366 29.183-79.768 29.183z" fill="#374151" stroke="transparent" data-fill-palette-color="tertiary"></path></g></svg></g><defs></defs></svg><rect width="395.52" height="247.2" fill="none" stroke="none" visibility="hidden"></rect></g></svg></g></svg>